<svg version="1" xmlns="http://www.w3.org/2000/svg" width="346.667" height="346.667" viewBox="0 0 260.000000 260.000000"><path d="M0 130v130h260V0H0v130zm126.1-51.7c4.4 3.4 4.7 8.9.7 12.7-4.9 4.5-12.8.6-12.8-6.4 0-6.1 7.3-10 12.1-6.3zm56 38.4c11.5 5.1 18 15.2 18.7 28.7.3 6.6 0 9.2-1.8 14-6.4 16.9-25.3 26.1-43.5 21.2-7.1-1.8-11-4.1-15.6-8.9-5.2-5.2-7.5-9.8-8.8-17.3-3.1-17.1 6.8-33.7 23.2-39 6.3-2.1 22-1.3 27.8 1.3zm-57.4 3c-.3 2.1-2 15.5-3.7 29.8-1.7 14.3-3.3 27-3.6 28.2-.4 2.1-1 2.3-8 2.3h-7.5l.6-3.3c.2-1.7 1.8-14.5 3.5-28.2 1.6-13.8 3.3-26.7 3.6-28.8l.6-3.7h15.1l-.6 3.7zm-39.9 46.8c5.1 5.9 1.2 14.5-6.7 14.5-3.2 0-4.4-.6-6.5-3.1-3.6-4.2-3.4-8.2.4-12.1 2.7-2.6 3.6-3 6.8-2.5 2.2.4 4.6 1.7 6 3.2z"/><path d="M158.2 128c-8.2 3.7-12.3 10.3-12.3 19.9-.1 13.2 7.3 21.1 19.7 21.1 7.4 0 13.3-3.3 17-9.5 3.1-5.4 4.2-14.4 2.4-19.9-3.6-11.1-16-16.5-26.8-11.6z"/></svg>